<svg xmlns="http://www.w3.org/2000/svg" width="40" height="40" viewBox="0 0 40 40">
  <g id="Group_150625" data-name="Group 150625" transform="translate(-141 -77)">
    <g id="Ellipse_2220" data-name="Ellipse 2220" transform="translate(141 77)" fill="#fff" stroke="#e1e1e1" stroke-width="1">
      <circle cx="20" cy="20" r="20" stroke="none"/>
      <circle cx="20" cy="20" r="19.5" fill="none"/>
    </g>
    <g id="Group_150603" data-name="Group 150603" transform="translate(-6885.287 9228.869)">
      <path id="Path_198377" data-name="Path 198377" d="M97.759,5.362a5.189,5.189,0,0,1-1.571,3.791A5.189,5.189,0,0,1,92.4,10.724h0a5.189,5.189,0,0,1-3.789-1.571,5.188,5.188,0,0,1-1.571-3.791,5.188,5.188,0,0,1,1.571-3.791A5.187,5.187,0,0,1,92.395,0h0a5.19,5.19,0,0,1,3.791,1.571A5.188,5.188,0,0,1,97.759,5.362Zm0,0" transform="translate(6953.75 -9143)" fill="#e1e1e1"/>
      <path id="Path_198378" data-name="Path 198378" d="M18.574,255a3.7,3.7,0,0,1-1.1,2.8,3.952,3.952,0,0,1-2.829,1.032H3.927A3.95,3.95,0,0,1,1.1,257.8,3.7,3.7,0,0,1,0,255c0-.447.015-.889.044-1.315a13.161,13.161,0,0,1,.181-1.407,11.1,11.1,0,0,1,.346-1.414,7.014,7.014,0,0,1,.581-1.319,4.994,4.994,0,0,1,.876-1.143,3.866,3.866,0,0,1,1.26-.792A4.355,4.355,0,0,1,4.9,247.32a1.629,1.629,0,0,1,.871.369c.265.173.571.37.909.586a5.186,5.186,0,0,0,1.174.518,4.682,4.682,0,0,0,1.294.23l.142,0a4.67,4.67,0,0,0,1.437-.232,5.186,5.186,0,0,0,1.175-.518c.341-.218.647-.415.908-.585a1.628,1.628,0,0,1,.872-.37,4.357,4.357,0,0,1,1.608.291,3.87,3.87,0,0,1,1.259.792,4.976,4.976,0,0,1,.877,1.143A6.99,6.99,0,0,1,18,250.864a11.1,11.1,0,0,1,.346,1.415,13.285,13.285,0,0,1,.18,1.407C18.559,254.109,18.574,254.552,18.574,255Zm0,0" transform="translate(7037 -9379.566)" fill="#e1e1e1"/>
    </g>
  </g>
</svg>
